<?xml version="1.0" standalone="no"?>
<!DOCTYPE svg PUBLIC "-//W3C//DTD SVG 20010904//EN"
 "http://www.w3.org/TR/2001/REC-SVG-20010904/DTD/svg10.dtd">
<svg version="1.0" xmlns="http://www.w3.org/2000/svg"
 width="274.000000pt" height="274.000000pt" viewBox="0 0 274.000000 274.000000"
 preserveAspectRatio="xMidYMid meet">
<metadata>
Created by potrace 1.14, written by Peter Selinger 2001-2017
</metadata>
<g transform="translate(0.000000,274.000000) scale(0.100000,-0.100000)"
fill="#000000" stroke="none">
<path d="M515 2112 c-3 -3 -27 -6 -53 -7 -81 -3 -86 -4 -119 -35 -23 -22 -42
-30 -67 -30 -19 0 -38 -4 -41 -10 -3 -5 -1 -10 6 -10 7 0 4 -6 -6 -14 -11 -8
-23 -12 -27 -10 -16 10 -89 -89 -93 -126 -2 -22 -30 -70 -41 -70 -8 0 -14 -5
-14 -11 0 -5 5 -7 11 -3 6 3 4 -8 -5 -24 -9 -17 -16 -39 -16 -50 0 -10 -5 -23
-10 -28 -22 -22 -49 -229 -36 -277 3 -12 26 -53 51 -91 25 -38 45 -74 45 -81
0 -6 17 -36 39 -66 21 -30 48 -73 60 -97 12 -23 36 -51 53 -62 23 -14 32 -27
33 -52 2 -18 -1 -38 -6 -45 -7 -8 28 -36 118 -96 70 -46 151 -97 178 -111 28
-15 73 -41 100 -57 45 -26 57 -29 130 -26 l80 2 35 65 c21 38 47 71 65 82 29
16 159 57 233 73 19 4 42 19 54 36 l22 30 18 -36 c22 -42 91 -80 163 -89 127
-17 132 -20 139 -93 2 -21 11 -54 20 -73 l16 -35 -5 35 c-3 22 -2 30 4 21 5
-7 14 -10 20 -6 8 4 9 11 2 18 -6 7 -6 26 -1 47 4 19 8 28 9 19 1 -10 9 -16
18 -15 15 1 18 -7 17 -44 -1 -25 -5 -57 -9 -72 -8 -31 10 -45 66 -51 19 -2 40
-7 47 -11 7 -4 12 -1 12 8 0 9 4 16 8 16 5 0 17 7 28 15 18 15 17 16 -16 11
-19 -3 -29 -3 -22 0 6 3 12 23 12 44 0 21 -6 41 -12 43 -7 3 11 6 40 6 40 1
52 -2 52 -14 0 -8 5 -15 11 -15 6 0 8 -9 4 -20 -7 -22 5 -26 23 -8 9 9 15 9
23 1 13 -13 -36 -63 -62 -63 -9 0 -30 -5 -48 -11 l-32 -11 28 -15 c15 -8 35
-12 45 -10 10 3 18 1 18 -5 0 -5 4 -7 10 -3 5 3 7 12 4 20 -5 11 2 14 28 11
19 -2 43 -8 54 -14 20 -12 22 -12 -48 -16 -28 -2 -30 -13 -3 -18 14 -3 28 -1
31 3 10 16 29 9 39 -13 6 -13 19 -24 30 -26 18 -3 18 -2 4 10 -9 7 -19 21 -23
31 -5 15 -2 17 17 11 12 -4 37 -18 55 -32 17 -13 32 -20 32 -16 0 5 7 1 15 -9
7 -10 28 -27 47 -36 18 -10 37 -28 43 -39 5 -12 16 -22 24 -22 13 0 71 -58 71
-72 0 -5 16 -8 35 -8 24 0 35 -5 35 -15 0 -18 20 -20 20 -2 1 6 9 2 19 -10 25
-30 35 -29 27 2 -6 24 7 35 19 15 3 -6 19 -10 35 -10 16 0 41 -5 55 -12 29
-13 43 -5 26 16 -15 18 0 76 25 96 7 7 14 19 14 28 0 8 7 24 17 34 9 10 11 18
6 18 -6 0 -13 12 -15 27 -3 16 -9 36 -13 46 -11 27 10 20 23 -8 6 -14 16 -25
22 -25 27 0 1 -96 -39 -144 -9 -11 -10 -16 -3 -12 7 4 12 1 12 -8 0 -8 -6 -16
-12 -19 -7 -2 -10 -8 -6 -12 11 -12 28 5 28 30 0 13 5 25 11 27 26 9 53 148
29 148 -5 0 -20 21 -33 48 -19 38 -24 65 -25 140 -2 62 2 92 9 92 8 0 8 4 -1
15 -6 8 -9 19 -6 24 4 5 2 12 -3 15 -5 3 -7 15 -4 26 3 12 -1 28 -9 38 -21 24
-33 46 -22 39 6 -3 16 -2 23 3 12 7 12 16 -1 54 -12 36 -13 46 -2 46 7 0 14
-6 17 -12 2 -7 2 -1 0 15 -3 19 0 29 12 33 10 4 15 14 12 25 -3 11 -1 19 4 19
5 0 8 18 7 39 -1 22 6 50 14 64 12 17 16 52 17 132 1 91 -2 113 -19 142 -25
43 -25 50 1 58 16 5 18 9 8 15 -9 6 -10 12 -2 22 6 7 11 37 10 65 -1 48 -2 51
-17 38 -25 -23 -55 -18 -68 9 -12 27 -29 49 -86 113 -21 24 -41 42 -43 40 -2
-2 -22 14 -46 35 -41 39 -95 68 -124 68 -11 0 -13 -7 -9 -25 5 -18 2 -25 -9
-25 -8 0 -15 7 -15 15 0 22 -50 75 -72 75 -19 0 -67 -27 -80 -45 -5 -6 -8 -5
-8 3 0 9 -10 13 -27 11 -16 -1 -36 1 -45 5 -9 4 -38 8 -65 9 -26 1 -51 6 -55
12 -7 10 -144 -21 -166 -38 -8 -6 -35 -10 -60 -9 -40 2 -50 -2 -65 -23 -15
-21 -16 -31 -8 -63 14 -49 14 -105 0 -119 -15 -15 18 -87 61 -134 16 -18 30
-36 30 -39 0 -4 -14 -35 -30 -69 l-31 -63 -59 4 c-33 2 -60 0 -60 -4 0 -5 5
-6 10 -3 6 3 10 2 10 -3 0 -16 -27 -21 -40 -9 -10 9 -12 8 -7 -5 8 -22 -6 -23
-23 -3 -15 18 -45 21 -34 3 5 -7 2 -9 -8 -6 -9 4 -31 -6 -52 -24 -29 -24 -40
-28 -49 -19 -9 9 -8 14 5 22 9 5 25 17 34 26 15 16 15 17 -2 23 -17 6 -17 8 2
18 12 6 24 9 27 6 7 -7 56 20 90 51 28 24 33 42 29 97 -4 57 -82 37 -82 -21 1
-24 2 -24 14 -8 21 27 25 20 11 -19 -6 -20 -21 -41 -32 -47 -11 -7 -44 -31
-73 -54 -28 -24 -58 -43 -65 -43 -7 0 -33 25 -59 56 l-46 57 -11 -32 c-14 -40
-29 -30 -29 19 0 22 -5 51 -12 65 -10 21 -9 27 7 38 27 21 11 54 -33 66 -36
11 -51 5 -87 -35 -5 -6 -25 -17 -44 -23 -28 -9 -37 -8 -51 4 -9 8 -23 15 -31
15 -12 0 -11 -2 1 -10 11 -7 6 -10 -22 -10 -42 0 -100 20 -80 27 8 3 19 0 25
-6 6 -6 21 -11 33 -11 16 0 21 6 20 23 -1 16 -7 22 -23 21 -95 -3 -102 -4
-108 -24 -3 -11 -13 -20 -21 -20 -17 0 -17 2 -2 52 10 34 9 44 -10 81 -15 30
-22 65 -24 122 l-3 79 35 18 c23 12 53 17 85 15 40 -2 57 3 80 22 l30 23 -39
34 c-21 18 -42 31 -46 29 -4 -2 -25 4 -47 15 -34 16 -51 18 -114 11 -41 -5
-81 -5 -89 -1 -17 9 -107 10 -115 2z m1895 -232 c8 -5 11 -10 5 -10 -5 0 -17
5 -25 10 -8 5 -10 10 -5 10 6 0 17 -5 25 -10z m-1634 -317 c-10 -10 -19 5 -10
18 6 11 8 11 12 0 2 -7 1 -15 -2 -18z m87 10 c-13 -2 -33 -2 -45 0 -13 2 -3 4
22 4 25 0 35 -2 23 -4z m1751 -17 c25 -10 35 -22 40 -47 3 -19 16 -42 29 -51
l22 -17 -44 -45 c-60 -61 -78 -64 -97 -16 -9 22 -24 42 -35 45 -20 7 -37 51
-24 63 4 4 10 1 12 -5 7 -21 21 -15 25 10 2 17 9 21 28 20 24 -2 24 -2 -2 8
-32 12 -35 24 -10 38 22 13 17 13 56 -3z m-2189 -80 c-28 -13 -58 -36 -67 -52
-11 -18 -18 -23 -18 -13 0 19 33 59 49 59 6 0 11 4 11 9 0 10 22 18 55 20 11
0 -2 -10 -30 -23z m388 14 c-37 -15 -26 -25 22 -22 35 3 45 1 45 -11 0 -9 10
-17 23 -19 17 -2 22 -9 22 -30 -1 -20 4 -28 17 -28 24 0 23 -16 -2 -23 -10 -3
-24 1 -31 9 -7 8 -31 14 -60 14 -30 0 -49 4 -49 11 0 8 -5 8 -15 -1 -12 -10
-15 -10 -15 3 0 9 -8 17 -17 19 -15 3 -15 5 3 22 10 11 17 30 16 43 -3 20 1
23 30 22 30 0 31 -1 11 -9z m-255 -17 c0 -5 2 -16 7 -26 4 -10 5 -21 1 -24 -3
-3 -9 3 -13 13 -4 10 -14 24 -22 31 -14 11 -13 12 7 13 12 0 21 -3 20 -7z
m1877 -3 c-3 -5 -13 -10 -21 -10 -8 0 -14 5 -14 10 0 6 9 10 21 10 11 0 17 -4
14 -10z m-1171 -67 c-19 -20 -24 -15 -17 21 5 27 7 28 19 11 11 -14 10 -20 -2
-32z m-816 7 c-3 -16 -1 -30 4 -30 4 0 8 4 8 9 0 5 7 11 15 15 25 9 17 -20
-10 -38 -22 -15 -28 -15 -46 -2 -14 9 -17 16 -9 21 8 5 5 11 -7 21 -17 13 -17
13 4 14 12 0 25 5 28 10 12 19 17 10 13 -20z m277 -19 c-3 -6 -11 -8 -17 -5
-6 4 -5 9 3 15 16 10 23 4 14 -10z m365 -1 c0 -5 -4 -10 -9 -10 -5 0 -17 -3
-27 -7 -16 -6 -17 -5 -4 10 17 18 40 22 40 7z m60 -17 c0 -19 -3 -24 -10 -17
-6 6 -8 18 -4 27 9 24 14 21 14 -10z m-516 -16 c3 4 6 -8 6 -25 0 -17 -4 -33
-9 -36 -5 -3 -7 -15 -4 -26 3 -12 0 -20 -7 -20 -7 0 -10 -6 -7 -14 4 -10 -6
-13 -43 -12 -27 1 -52 5 -56 9 -13 13 2 17 33 8 18 -5 34 -7 37 -3 11 10 6 40
-9 52 -20 16 -19 50 2 79 l16 24 17 -21 c10 -12 20 -18 24 -15z m676 -2 c0 -2
-7 -5 -15 -9 -9 -3 -15 0 -15 9 0 9 6 12 15 9 8 -4 15 -7 15 -9z m-270 -20 c0
-13 -4 -14 -20 -5 -11 6 -20 13 -20 15 0 3 9 5 20 5 11 0 20 -7 20 -15z m819
-39 c-15 -42 -7 -56 19 -33 10 10 27 17 38 16 17 0 16 -1 -3 -9 -27 -11 -30
-30 -5 -30 14 0 15 -2 2 -10 -8 -5 -10 -10 -5 -10 6 0 -1 -9 -15 -20 -25 -19
-25 -19 -43 3 l-18 22 7 -26 c3 -15 1 -30 -5 -33 -20 -12 -9 116 12 147 25 36
32 28 16 -17z m-189 -31 c9 -11 10 -18 1 -29 -13 -16 4 -27 36 -22 10 2 12 1
6 -1 -7 -3 -13 -11 -13 -19 0 -8 -5 -14 -11 -14 -7 0 -9 -10 -4 -27 4 -16 3
-25 -1 -21 -4 5 -15 -6 -25 -22 -12 -19 -27 -30 -41 -30 -12 0 -30 -8 -41 -17
-18 -17 -20 -17 -41 8 -12 14 -30 28 -39 32 -9 3 -23 18 -29 32 -19 41 0 60
58 60 48 0 49 0 54 35 3 19 10 35 17 35 6 0 15 3 19 8 12 12 41 8 54 -8z
m-1090 -75 c19 12 30 13 30 2 0 -8 -44 -32 -58 -32 -18 1 -32 18 -26 34 6 15
8 15 23 2 11 -10 21 -12 31 -6z m1262 -112 c-10 -22 -11 -21 -11 12 -1 26 2
31 11 22 8 -8 8 -17 0 -34z m24 -55 c-3 -8 -6 -17 -6 -19 0 -2 -4 -4 -10 -4
-5 0 -10 11 -10 25 0 18 4 23 16 18 8 -3 13 -12 10 -20z m-558 -32 c14 -8 7
-57 -9 -67 -9 -5 -29 36 -29 62 0 16 18 18 38 5z m562 -51 c0 -36 -17 -48 -38
-27 -14 14 -13 18 2 42 20 31 36 24 36 -15z m-54 -73 c9 -5 12 -17 8 -31 -6
-27 11 -44 20 -21 3 8 10 15 16 15 16 0 12 -40 -5 -46 -9 -4 -15 -19 -15 -35
0 -18 -5 -29 -14 -29 -25 0 -38 29 -39 90 0 33 -4 60 -9 60 -12 0 -10 22 5 53
l12 27 3 -38 c2 -20 10 -41 18 -45z m-56 44 c0 -5 -7 -11 -15 -15 -15 -5 -20
5 -8 17 9 10 23 9 23 -2z m-102 -220 c3 -8 -1 -12 -9 -9 -7 2 -15 10 -17 17
-3 8 1 12 9 9 7 -2 15 -10 17 -17z m1002 -53 c0 -25 -16 -22 -24 5 -11 41 -7
54 9 33 8 -11 15 -28 15 -38z m-923 -40 c-3 -8 -6 -5 -6 6 -1 11 2 17 5 13 3
-3 4 -12 1 -19z m183 -78 c0 -5 -4 -10 -9 -10 -6 0 -13 5 -16 10 -3 6 1 10 9
10 9 0 16 -4 16 -10z m696 -65 c-3 -9 0 -15 8 -15 15 0 32 -72 21 -90 -13 -21
-23 -8 -30 40 -4 27 -11 53 -16 56 -11 7 -2 24 13 24 5 0 8 -7 4 -15z m-201
-4 c3 -5 1 -12 -5 -16 -5 -3 -10 1 -10 9 0 18 6 21 15 7z m32 -53 c-3 -8 -6
-5 -6 6 -1 11 2 17 5 13 3 -3 4 -12 1 -19z m123 -76 c0 -24 -2 -25 -15 -11 -9
9 -13 23 -9 32 9 24 24 11 24 -21z"/>
<path d="M1600 1230 c0 -5 5 -10 11 -10 5 0 7 5 4 10 -3 6 -8 10 -11 10 -2 0
-4 -4 -4 -10z"/>
<path d="M1585 1150 c-3 -5 -1 -10 4 -10 6 0 11 5 11 10 0 6 -2 10 -4 10 -3 0
-8 -4 -11 -10z"/>
<path d="M2100 1960 c0 -5 5 -10 10 -10 6 0 10 5 10 10 0 6 -4 10 -10 10 -5 0
-10 -4 -10 -10z"/>
<path d="M850 1690 c0 -5 5 -10 11 -10 5 0 7 5 4 10 -3 6 -8 10 -11 10 -2 0
-4 -4 -4 -10z"/>
<path d="M1530 1420 c0 -5 5 -10 11 -10 5 0 7 5 4 10 -3 6 -8 10 -11 10 -2 0
-4 -4 -4 -10z"/>
<path d="M2694 698 c6 -40 10 -55 35 -133 9 -28 9 -29 10 -5 0 14 -6 47 -14
74 -8 27 -15 62 -15 78 0 15 -5 28 -11 28 -8 0 -9 -14 -5 -42z"/>
<path d="M50 276 c0 -3 9 -10 20 -16 11 -6 20 -8 20 -6 0 3 -9 10 -20 16 -11
6 -20 8 -20 6z"/>
<path d="M1308 263 c7 -3 16 -2 19 1 4 3 -2 6 -13 5 -11 0 -14 -3 -6 -6z"/>
<path d="M1280 246 c0 -8 9 -17 20 -21 10 -3 30 -19 43 -34 17 -21 35 -29 70
-33 46 -5 72 4 42 16 -8 3 -15 16 -15 30 0 29 -45 49 -89 40 -16 -3 -38 -1
-50 5 -17 10 -21 9 -21 -3z m110 -56 c12 -8 11 -10 -7 -10 -13 0 -23 5 -23 10
0 13 11 13 30 0z"/>
<path d="M1970 173 c0 -13 5 -23 10 -23 13 0 13 11 0 30 -8 12 -10 11 -10 -7z"/>
<path d="M238 158 c-2 -5 -2 -25 0 -44 3 -24 9 -34 22 -34 10 0 20 -6 23 -13
3 -8 30 -26 60 -40 44 -22 68 -27 132 -27 48 0 75 4 70 9 -14 13 -86 54 -179
102 -102 53 -124 61 -128 47z"/>
<path d="M1475 140 c4 -6 11 -8 16 -5 14 9 11 15 -7 15 -8 0 -12 -5 -9 -10z"/>
<path d="M1950 121 c0 -6 4 -12 9 -15 4 -3 11 -22 14 -42 6 -37 22 -64 39 -64
5 0 0 15 -11 34 -12 19 -18 41 -15 50 3 9 1 23 -6 31 -14 17 -30 20 -30 6z"/>
<path d="M1633 84 c-7 -18 12 -34 43 -34 30 0 36 11 17 32 -20 22 -52 23 -60
2z"/>
</g>
</svg>
